<?xml version="1.0" encoding="UTF-8" standalone="no"?>
<!-- Created with Inkscape (http://www.inkscape.org/) -->

<svg
   xmlns:osb="http://www.openswatchbook.org/uri/2009/osb"
   xmlns:dc="http://purl.org/dc/elements/1.1/"
   xmlns:cc="http://creativecommons.org/ns#"
   xmlns:rdf="http://www.w3.org/1999/02/22-rdf-syntax-ns#"
   xmlns:svg="http://www.w3.org/2000/svg"
   xmlns="http://www.w3.org/2000/svg"
   xmlns:sodipodi="http://sodipodi.sourceforge.net/DTD/sodipodi-0.dtd"
   xmlns:inkscape="http://www.inkscape.org/namespaces/inkscape"
   width="2000"
   height="2000"
   viewBox="0 0 529.16668 529.16665"
   version="1.1"
   id="svg8"
   inkscape:export-filename="C:\Users\ivan\Desktop\design.png"
   inkscape:export-xdpi="58"
   inkscape:export-ydpi="58"
   inkscape:version="0.92.3 (2405546, 2018-03-11)"
   sodipodi:docname="design.svg">
  <defs
     id="defs2">
    <linearGradient
       id="linearGradient1985"
       osb:paint="solid">
      <stop
         style="stop-color:#000000;stop-opacity:1;"
         offset="0"
         id="stop1983" />
    </linearGradient>
  </defs>
  <sodipodi:namedview
     id="base"
     pagecolor="#ffffff"
     bordercolor="#666666"
     borderopacity="1.0"
     inkscape:pageopacity="0.0"
     inkscape:pageshadow="2"
     inkscape:zoom="0.30259198"
     inkscape:cx="628.44586"
     inkscape:cy="1146.5971"
     inkscape:document-units="mm"
     inkscape:current-layer="layer1"
     showgrid="false"
     units="px"
     inkscape:window-width="1600"
     inkscape:window-height="849"
     inkscape:window-x="0"
     inkscape:window-y="0"
     inkscape:window-maximized="1" />
  <metadata
     id="metadata5">
    <rdf:RDF>
      <cc:Work
         rdf:about="">
        <dc:format>image/svg+xml</dc:format>
        <dc:type
           rdf:resource="http://purl.org/dc/dcmitype/StillImage" />
        <dc:title></dc:title>
      </cc:Work>
    </rdf:RDF>
  </metadata>
  <g
     inkscape:label="Camada 1"
     inkscape:groupmode="layer"
     id="layer1"
     transform="translate(0,232.16666)">
    <text
       xml:space="preserve"
       style="font-style:normal;font-weight:normal;font-size:22.57777786px;line-height:1.25;font-family:sans-serif;letter-spacing:0px;word-spacing:0px;fill:#000000;fill-opacity:1;stroke:none;stroke-width:0.26458332"
       x="64.144684"
       y="-45.63953"
       id="text78"><tspan
         sodipodi:role="line"
         x="64.144684"
         y="-25.04114"
         style="stroke-width:0.26458332"
         id="tspan80" /></text>
    <text
       xml:space="preserve"
       style="font-style:normal;font-weight:normal;font-size:22.57777786px;line-height:1.25;font-family:sans-serif;letter-spacing:0px;word-spacing:0px;fill:#000000;fill-opacity:1;stroke:none;stroke-width:0.26458332"
       x="236.26627"
       y="160.158"
       id="text1168"><tspan
         sodipodi:role="line"
         id="tspan1166"
         x="236.26627"
         y="180.75639"
         style="stroke-width:0.26458332" /></text>
    <rect
       style="opacity:1;fill:#f9f9f9;fill-opacity:0.88405798;stroke:none;stroke-width:0.5;stroke-miterlimit:4;stroke-dasharray:none;stroke-opacity:1"
       id="rect895"
       width="527.25702"
       height="524.63385"
       x="0.87438977"
       y="-231.13142"
       ry="4.2763014" />
    <g
       id="g966"
       transform="translate(475.66804,81.318249)">
      <rect
         ry="4.2763124"
         y="-203.44635"
         x="-437.57062"
         height="311.10172"
         width="457.56543"
         id="rect12"
         style="opacity:1;fill:#4d4d4d;fill-opacity:1;stroke:none;stroke-width:0.27065915;stroke-opacity:1" />
      <text
         id="text16"
         y="-157.78279"
         x="-406.10962"
         style="font-style:normal;font-weight:normal;font-size:20.28753471px;line-height:1.25;font-family:sans-serif;letter-spacing:0px;word-spacing:0px;fill:#000000;fill-opacity:1;stroke:none;stroke-width:0.23774454"
         xml:space="preserve"><tspan
           style="font-style:normal;font-variant:normal;font-weight:bold;font-stretch:normal;font-size:20.28753471px;font-family:sans-serif;-inkscape-font-specification:'sans-serif, Bold';font-variant-ligatures:normal;font-variant-caps:normal;font-variant-numeric:normal;font-feature-settings:normal;text-align:start;writing-mode:lr-tb;text-anchor:start;fill:#ffffff;stroke-width:0.23774454"
           y="-157.78279"
           x="-406.10962"
           id="tspan14"
           sodipodi:role="line">Logo</tspan></text>
      <g
         transform="matrix(0.82577123,0,0,0.82577123,-422.31016,-92.770969)"
         id="g640">
        <text
           xml:space="preserve"
           style="font-style:normal;font-variant:normal;font-weight:normal;font-stretch:normal;font-size:12.69999981px;line-height:1.25;font-family:sans-serif;-inkscape-font-specification:'sans-serif, Normal';font-variant-ligatures:normal;font-variant-caps:normal;font-variant-numeric:normal;font-feature-settings:normal;text-align:start;letter-spacing:0px;word-spacing:0px;writing-mode:lr-tb;text-anchor:start;fill:#000000;fill-opacity:1;stroke:none;stroke-width:0.26458332"
           x="258.77496"
           y="-81.609566"
           id="text16-0"><tspan
             sodipodi:role="line"
             id="tspan14-6"
             x="258.77496"
             y="-81.609566"
             style="font-style:normal;font-variant:normal;font-weight:normal;font-stretch:normal;font-size:12.69999981px;font-family:sans-serif;-inkscape-font-specification:'sans-serif, Normal';font-variant-ligatures:normal;font-variant-caps:normal;font-variant-numeric:normal;font-feature-settings:normal;text-align:start;writing-mode:lr-tb;text-anchor:start;fill:#ffffff;stroke-width:0.26458332">Sobre   serviço  contato  login</tspan></text>
      </g>
      <text
         id="text46"
         y="-85.313263"
         x="-407.63641"
         style="font-style:normal;font-weight:normal;font-size:22.57777786px;line-height:1.25;font-family:sans-serif;letter-spacing:0px;word-spacing:0px;fill:#000000;fill-opacity:1;stroke:none;stroke-width:0.26458332"
         xml:space="preserve"><tspan
           style="font-style:normal;font-variant:normal;font-weight:bold;font-stretch:normal;font-size:25.39999962px;font-family:sans-serif;-inkscape-font-specification:'sans-serif, Bold';font-variant-ligatures:normal;font-variant-caps:normal;font-variant-numeric:normal;font-feature-settings:normal;text-align:start;writing-mode:lr-tb;text-anchor:start;fill:#ffffff;stroke-width:0.26458332"
           y="-85.313263"
           x="-407.63641"
           id="tspan44"
           sodipodi:role="line">Designer de </tspan><tspan
           id="tspan48"
           style="font-style:normal;font-variant:normal;font-weight:bold;font-stretch:normal;font-size:25.39999962px;font-family:sans-serif;-inkscape-font-specification:'sans-serif, Bold';font-variant-ligatures:normal;font-variant-caps:normal;font-variant-numeric:normal;font-feature-settings:normal;text-align:start;writing-mode:lr-tb;text-anchor:start;fill:#ffffff;stroke-width:0.26458332"
           y="-53.563263"
           x="-407.63641"
           sodipodi:role="line">interiores</tspan></text>
      <text
         transform="scale(0.95440375,1.0477746)"
         id="text52"
         y="-23.065638"
         x="-423.19055"
         style="font-style:normal;font-variant:normal;font-weight:normal;font-stretch:normal;font-size:17.76235962px;line-height:1.25;font-family:sans-serif;-inkscape-font-specification:'sans-serif, Normal';font-variant-ligatures:normal;font-variant-caps:normal;font-variant-numeric:normal;font-feature-settings:normal;text-align:justify;letter-spacing:0px;word-spacing:0px;writing-mode:lr-tb;text-anchor:start;fill:#ffffff;fill-opacity:1;stroke:none;stroke-width:0.20815124"
         xml:space="preserve"><tspan
           id="tspan72"
           style="font-style:normal;font-variant:normal;font-weight:normal;font-stretch:normal;font-size:11.28888893px;font-family:sans-serif;-inkscape-font-specification:'sans-serif, Normal';font-variant-ligatures:normal;font-variant-caps:normal;font-variant-numeric:normal;font-feature-settings:normal;text-align:justify;writing-mode:lr-tb;text-anchor:start;fill:#ffffff;stroke-width:0.20815124"
           y="-23.065638"
           x="-423.19055"
           sodipodi:role="line">Sed up dksd kderr lcd loerem comd</tspan></text>
      <text
         id="text95"
         y="-4.063343"
         x="-406.03281"
         style="font-style:normal;font-weight:normal;font-size:22.57777786px;line-height:1.25;font-family:sans-serif;letter-spacing:0px;word-spacing:0px;fill:#ffffff;fill-opacity:1;stroke:none;stroke-width:0.26458332"
         xml:space="preserve"><tspan
           style="font-style:normal;font-variant:normal;font-weight:normal;font-stretch:normal;font-size:11.28888893px;font-family:sans-serif;-inkscape-font-specification:'sans-serif, Normal';font-variant-ligatures:normal;font-variant-caps:normal;font-variant-numeric:normal;font-feature-settings:normal;text-align:start;writing-mode:lr-tb;text-anchor:start;fill:#ffffff;stroke-width:0.26458332"
           y="-4.063343"
           x="-406.03281"
           id="tspan93"
           sodipodi:role="line">Suas dkse seusx.</tspan></text>
      <g
         transform="rotate(-7.8721175,-553.09816,3445.7588)"
         id="g479">
        <rect
           y="-10.730046"
           x="332.5321"
           width="96.158676"
           id="color"
           height="102.56925"
           style="fill:#f2f2f2;stroke-width:1.06842971" />
        <g
           id="grid"
           transform="matrix(1.0684297,0,0,1.0684297,315.43724,-28.893351)"
           style="fill:#666666">
          <g
             id="g205"
             style="fill:#666666">
            <rect
               id="rect199"
               y="44"
               x="21.5"
               width="79"
               height="1"
               style="fill:#666666" />
            <rect
               id="rect201"
               y="65"
               x="21.5"
               width="79"
               height="1"
               style="fill:#666666" />
            <rect
               id="rect203"
               y="85"
               x="21.5"
               width="79"
               height="1"
               style="fill:#666666" />
          </g>
          <g
             id="g213"
             style="fill:#666666">
            <rect
               id="rect207"
               y="23"
               x="41"
               width="1"
               height="84"
               style="fill:#666666" />
            <rect
               id="rect209"
               y="23"
               x="60"
               width="1"
               height="84"
               style="fill:#666666" />
            <rect
               id="rect211"
               y="23"
               x="79"
               width="1"
               height="84"
               style="fill:#666666" />
          </g>
          <path
             id="path215"
             d="M 101,108 H 21 V 22 h 80 z M 23,106 H 99 V 24 H 23 Z"
             inkscape:connector-curvature="0"
             style="fill:#666666" />
        </g>
        <g
           id="rod_r"
           transform="matrix(1.0684297,0,0,1.0684297,315.43724,-28.893351)">
          <path
             style="fill:#e8e8ef"
             inkscape:connector-curvature="0"
             d="M 77.3,109.9 75.4,120 c -0.1,0.4 0.5,0.6 0.7,0.2 l 4.4,-9.3 z"
             id="path219" />
          <polygon
             style="fill:#e0e0e0"
             points="90,67.7 98.6,70.6 91.5,92.1 85.1,82.6 "
             id="polygon221" />
          <rect
             style="fill:#e0e0e0"
             height="9.1000004"
             transform="matrix(0.3161,-0.9487,0.9487,0.3161,16.4741,131.2963)"
             width="31.5"
             x="83.5"
             y="49.700001"
             id="rect223" />
          <polygon
             style="fill:#e0e0e0"
             points="82.7,111.7 76.1,109.5 85.1,82.6 91.5,92.1 89,99.7 "
             id="polygon225" />
          <g
             id="g231">
            <circle
               style="fill:#cfd8dc"
               r="2.9000001"
               cx="91.400002"
               cy="78.199997"
               transform="matrix(0.4226,-0.9063,0.9063,0.4226,-18.1153,128.0402)"
               id="ellipse227" />
            <rect
               style="fill:#263238"
               height="5.8000002"
               transform="matrix(0.7771,-0.6294,0.6294,0.7771,-28.8605,74.9862)"
               width="1.2"
               x="90.800003"
               y="75.300003"
               id="rect229" />
          </g>
        </g>
        <g
           id="wheel_3_"
           transform="matrix(1.0684297,0,0,1.0684297,315.43724,-28.893351)">
          <rect
             style="fill:#757575"
             height="2.5"
             transform="matrix(0.316,-0.9488,0.9488,0.316,10.504,141.8067)"
             width="3.3"
             x="101.9"
             y="62.400002"
             id="rect234" />
          <rect
             style="fill:#757575"
             height="2.5"
             transform="matrix(0.316,-0.9488,0.9488,0.316,10.0699,140.419)"
             width="6.8000002"
             x="99"
             y="62"
             id="rect236" />
          <rect
             style="fill:#cfd8dc"
             height="2.5"
             transform="matrix(0.316,-0.9488,0.9488,0.316,11.3722,144.5829)"
             width="14.5"
             x="98.699997"
             y="63.200001"
             id="rect238" />
        </g>
        <g
           id="wheel_2_"
           transform="matrix(1.0684297,0,0,1.0684297,315.43724,-28.893351)"
           style="fill:#808080">
          <circle
             style="fill:#808080"
             r="5.4000001"
             cx="87.699997"
             cy="98.5"
             transform="matrix(0.4226,-0.9063,0.9063,0.4226,-38.6398,136.3659)"
             id="ellipse241" />
          <circle
             style="fill:#808080"
             r="1.2"
             cx="87.699997"
             cy="98.5"
             transform="matrix(0.4226,-0.9063,0.9063,0.4226,-38.6406,136.3632)"
             id="ellipse243" />
        </g>
        <g
           id="rod_l"
           transform="matrix(1.0684297,0,0,1.0684297,315.43724,-28.893351)">
          <path
             style="fill:#263238"
             inkscape:connector-curvature="0"
             d="m 49,105.5 -0.4,2.3 c -0.2,0.9 0.8,1.5 1.6,1 l 1.9,-1.4 c 0.7,-0.5 1.3,-1.2 1.8,-1.9 l 3.1,-5 -3.9,-2.4 -3.1,4.9 c -0.5,0.8 -0.8,1.7 -1,2.5 z"
             id="path246" />
          <polygon
             style="fill:#e0e0e0"
             points="51.6,97.2 57.5,100.9 70.1,80.3 68.2,79.2 64.7,77 62.3,75.5 56.7,84.7 "
             id="polygon248" />
          <polygon
             style="fill:#757575"
             points="62.3,75.5 70.1,80.3 70.6,79.5 68.7,78.3 75.9,66.6 72.4,64.5 65.2,76.1 62.9,74.7 "
             id="polygon250" />
          <polygon
             style="fill:#e0e0e0"
             points="74.7,55.5 86.1,54.3 70.6,79.5 67.9,77.8 79.4,59 77.3,57.7 65.8,76.5 62.9,74.7 "
             id="polygon252" />
          <polygon
             style="fill:#e0e0e0"
             points="89.3,31.7 97.1,36.5 86.1,54.3 74.7,55.5 "
             id="polygon254" />
        </g>
        <rect
           id="rect257"
           y="349.95749"
           x="164.38905"
           width="7.265305"
           transform="rotate(-58.419148)"
           height="2.671068"
           style="fill:#757575;stroke-width:1.06842721" />
        <path
           id="path259"
           d="m 395.89,48.14043 v 0 l 1.70948,-3.098446 0.10685,0.106843 c 0.85474,0.534215 1.06843,1.602645 0.53421,2.457389 v 0 c -0.42737,0.854743 -1.4958,1.068429 -2.35054,0.534214 z"
           inkscape:connector-curvature="0"
           style="fill:#757575;stroke-width:1.06842971" />
        <rect
           id="rect261"
           y="347.29944"
           x="160.35193"
           width="15.492194"
           transform="rotate(-58.419148)"
           height="2.671068"
           style="fill:#cfd8dc;stroke-width:1.06842721" />
        <g
           id="wheel"
           transform="matrix(1.0684297,0,0,1.0684297,315.43724,-28.893351)"
           style="fill:#808080">
          <circle
             style="fill:#808080"
             r="5.4000001"
             cx="58.299999"
             cy="84.800003"
             transform="matrix(0.4226,-0.9063,0.9063,0.4226,-43.1913,101.7931)"
             id="ellipse264" />
          <circle
             style="fill:#808080"
             r="1.2"
             cx="58.299999"
             cy="84.800003"
             transform="matrix(0.4226,-0.9063,0.9063,0.4226,-43.1912,101.7935)"
             id="ellipse266" />
        </g>
        <g
           style="fill:#808080"
           id="g275"
           transform="matrix(1.0684297,0,0,1.0684297,315.43724,-28.893351)">
          <path
             id="path269"
             d="m 113.8,15.9 -8.6,-4 c 4.2,-1.5 7,0 8.6,4 z"
             inkscape:connector-curvature="0"
             style="fill:#808080" />
          <rect
             id="rect271"
             y="22.9"
             x="100.5"
             width="3.5"
             transform="matrix(0.4226,-0.9063,0.9063,0.4226,32.6159,109.4895)"
             height="12.4"
             style="fill:#808080" />
          <polygon
             id="polygon273"
             points="109.4,13.8 113.8,15.9 108.6,30.2 97.3,24.9 105.2,11.9 "
             style="fill:#808080" />
        </g>
        <path
           id="path277"
           d="m 424.41707,2.8390111 c 6.83795,3.2052891 11.85957,7.158479 11.00483,8.7611239 l -2.56424,5.448991 -10.04324,12.180099 -1.17527,2.777917 c -0.64106,1.282116 -5.12846,0.534215 -10.04324,-1.709488 -4.91477,-2.243702 -8.33375,-5.235305 -7.79953,-6.517421 l 1.28211,-2.671074 2.88476,-15.4922307 2.56423,-5.44899146 c 0.85475,-1.81633054 7.05164,-0.53421485 13.88959,2.67107426 z"
           inkscape:connector-curvature="0"
           style="fill:#808080;stroke-width:1.06842971" />
        <g
           style="fill:#ffffff"
           id="g283"
           transform="matrix(1.0684297,0,0,1.0684297,315.43724,-28.893351)">
          <circle
             id="ellipse279"
             transform="matrix(0.2077,-0.9782,0.9782,0.2077,43.5766,133.2879)"
             cy="39.700001"
             cx="104.1"
             r="3.3"
             style="fill:#ffffff" />
          <polygon
             id="polygon281"
             points="103.9,37.6 105.1,37.8 104.8,39.3 106.2,39.6 106,40.8 104.5,40.5 104.2,41.9 103,41.6 103.3,40.2 101.9,39.9 102.2,38.7 103.6,39 "
             style="fill:#ffffff" />
        </g>
        <g
           style="fill:#ffffff"
           id="g289"
           transform="matrix(1.0684297,0,0,1.0684297,315.43724,-28.893351)">
          <circle
             id="ellipse285"
             transform="matrix(0.9817,-0.1904,0.1904,0.9817,-4.8955,18.3715)"
             cy="34.700001"
             cx="93.199997"
             r="3.3"
             style="fill:#ffffff" />
          <polygon
             id="polygon287"
             points="92.2,32.7 93.4,32.5 93.7,33.9 95.1,33.7 95.3,34.9 93.9,35.2 94.2,36.6 93,36.8 92.7,35.4 91.3,35.7 91,34.5 92.4,34.2 "
             style="fill:#ffffff" />
        </g>
      </g>
      <path
         id="path500"
         d="m -243.50141,87.3552 h 3.01186 v -7.89225 h 2.009 l 0.26606,-2.7194 h -2.27506 l 0.004,-1.36146 c 0,-0.70911 0.0622,-1.08935 1.00204,-1.08935 h 1.25583 v -2.72028 h -2.00987 c -2.41423,0 -3.26318,1.3198 -3.26318,3.53839 v 1.6327 h -1.5047 v 2.72028 h 1.5047 z"
         inkscape:connector-curvature="0"
         style="fill:#ffffff;stroke-width:0.85184485" />
      <path
         id="path583"
         d="m -211.4982,73.06628 c -1.52876,0.52067 -2.49505,1.86234 -2.38543,3.33081 l 0.0365,0.56653 -0.61151,-0.0692 c -2.22582,-0.26619 -4.1709,-1.16812 -5.82272,-2.68335 l -0.80764,-0.75177 -0.20672,0.55483 c -0.44036,1.23736 -0.15864,2.54487 0.75861,3.42433 0.48939,0.48559 0.37882,0.55484 -0.4644,0.26618 -0.29325,-0.0926 -0.55093,-0.16187 -0.57496,-0.1268 -0.0856,0.0809 0.20768,1.13306 0.44036,1.55031 0.31824,0.57911 0.96628,1.14474 1.67585,1.48106 l 0.59996,0.26617 -0.71053,0.01 c -0.68457,0 -0.70957,0.0117 -0.63554,0.25538 0.24422,0.75178 1.21051,1.5503 2.28736,1.89741 l 0.75861,0.2428 -0.66053,0.37049 c -0.97879,0.53326 -2.12872,0.8336 -3.27865,0.85519 -0.55092,0.0117 -1.00378,0.0575 -1.00378,0.0926 0,0.1151 1.49318,0.76256 2.36043,1.01794 2.6056,0.75177 5.70062,0.42714 8.02452,-0.85608 1.65183,-0.91363 3.3027,-2.73011 4.0738,-4.48904 0.41632,-0.93611 0.83168,-2.64828 0.83168,-3.4693 0,-0.53235 0.0365,-0.60159 0.72111,-1.23736 0.40382,-0.37049 0.78264,-0.77514 0.85668,-0.89025 0.12306,-0.22031 0.1096,-0.22031 -0.51343,-0.0234 -1.03937,0.34711 -1.18647,0.30125 -0.67208,-0.21943 0.37883,-0.37048 0.83168,-1.04132 0.83168,-1.23735 0,-0.0343 -0.18364,0.0234 -0.39132,0.12679 -0.22018,0.11601 -0.70957,0.28956 -1.07686,0.39297 l -0.66053,0.19693 -0.59901,-0.38307 c -0.33074,-0.20773 -0.79418,-0.43974 -1.03935,-0.50898 -0.62496,-0.16186 -1.57876,-0.13848 -2.14219,0.0468 z"
         inkscape:connector-curvature="0"
         style="fill:#ffffff;stroke-width:0.92984235" />
      <path
         id="path620"
         d="M -175.52925,71.73514 H -187.123 c -1.09104,0 -1.93229,0.84125 -1.93229,1.93229 v 11.59279 c 0,1.09104 0.84125,1.9323 1.93229,1.9323 h 11.59279 c 1.09105,0 1.9323,-0.84126 1.9323,-1.9323 V 73.66743 c 0.001,-1.092 -0.84125,-1.93229 -1.93134,-1.93229 z m -5.78539,4.69243 c 1.71408,0 3.10372,1.34658 3.10372,3.00706 0,1.66049 -1.38964,3.00707 -3.10372,3.00707 -1.71313,0 -3.10277,-1.34753 -3.10277,-3.00707 0,-1.66144 1.38964,-3.00706 3.10277,-3.00706 z m 5.78539,8.34934 c 0,0.33879 -0.14451,0.48331 -0.48331,0.48331 h -10.62713 c -0.33784,0 -0.48331,-0.14452 -0.48331,-0.48331 v -6.76255 l 1.20398,0.26224 c -0.12921,0.42015 -0.19907,0.86422 -0.19907,1.32552 0,2.56873 2.15145,4.65415 4.80249,4.65415 2.65296,0 4.80346,-2.08446 4.80346,-4.65415 0,-0.4613 -0.0699,-0.90537 -0.19907,-1.32552 l 1.181,-0.26224 v 6.76255 z m 0,-8.69483 c 0,0.26701 -0.2163,0.4833 -0.48331,0.4833 h -1.93229 c -0.26702,0 -0.48331,-0.21629 -0.48331,-0.4833 v -1.9323 c 0,-0.26702 0.21629,-0.48331 0.48331,-0.48331 h 1.93229 c 0.26701,0 0.48331,0.21629 0.48331,0.48331 z"
         inkscape:connector-curvature="0"
         style="fill:#ffffff;stroke-width:0.95705396" />
      <g
         style="fill:#ffffff;fill-rule:evenodd;stroke:none;stroke-width:1"
         transform="matrix(0.17011872,0.78724649,-0.73445913,0.15871172,-15.121738,-179.37565)"
         id="Page-1">
        <g
           style="fill:#ffffff"
           id="icon-111-search">
          <path
             style="fill:#ffffff"
             inkscape:connector-curvature="0"
             d="M 19.427116,21.427116 C 18.03725,22.41748 16.336652,23 14.5,23 9.8055794,23 6,19.194421 6,14.5 6,9.8055794 9.8055794,6 14.5,6 c 4.694421,0 8.5,3.8055794 8.5,8.5 0,1.836652 -0.58252,3.53725 -1.572884,4.927116 l 5.584802,5.584802 c 0.550201,0.550201 0.545613,1.430551 -2e-4,1.976363 l -0.02344,0.02344 c -0.544416,0.544417 -1.430661,0.545902 -1.976363,2e-4 z M 14.5,21 C 18.089851,21 21,18.089851 21,14.5 21,10.910149 18.089851,8 14.5,8 10.910149,8 8,10.910149 8,14.5 8,18.089851 10.910149,21 14.5,21 Z"
             id="search" />
        </g>
      </g>
    </g>
  </g>
</svg>
